<?xml version="1.0" encoding="UTF-8" standalone="no"?>
<!-- Created with Inkscape (http://www.inkscape.org/) -->

<svg
   width="431.80362"
   height="431.80365"
   viewBox="0 0 114.24803 114.24804"
   version="1.1"
   id="svg1"
   xmlns="http://www.w3.org/2000/svg"
   xmlns:svg="http://www.w3.org/2000/svg">
  <defs
     id="defs1" />
  <g
     id="layer1"
     transform="translate(60.335937,-16.576172)">
    <path
       style="color:#000000;fill:#ffffff;stroke-linecap:square;-inkscape-stroke:none;paint-order:stroke fill markers"
       d="m -3.2109375,16.576172 c -31.5177375,0 -57.1250005,25.605309 -57.1249995,57.123047 2e-6,31.517741 25.607263,57.125001 57.1249995,57.125001 31.5177365,0 57.1230445,-25.60726 57.1230465,-57.125001 0,-31.517738 -25.605309,-57.123047 -57.1230465,-57.123047 z m 0,5.24414 c 28.6833375,0 51.8789065,23.195569 51.8789065,51.878907 -2e-6,28.683341 -23.19557,51.880861 -51.8789065,51.880861 -28.6833365,0 -51.8808575,-23.19752 -51.8808595,-51.880861 0,-28.683338 23.197522,-51.878906 51.8808595,-51.878907 z"
       id="path1" />
    <path
       style="font-weight:bold;font-stretch:condensed;font-size:61.4609px;line-height:1;font-family:'Agency FB';-inkscape-font-specification:'Agency FB Bold Condensed';text-align:center;letter-spacing:0px;word-spacing:0px;text-orientation:upright;text-anchor:middle;fill:#ffffff;stroke-width:62.5994;stroke-linecap:square;paint-order:stroke fill markers"
       d="m -9.9441995,75.419016 c 0,2.920993 -1.4304865,4.38149 -4.2914595,4.38149 h -11.373867 v 17.015786 h -7.022388 V 49.850321 h 18.396255 c 2.860973,0 4.2914595,1.44049 4.2914595,4.32147 z M -17.026608,73.768455 V 55.882373 h -8.582918 V 73.768455 Z M 18.415444,49.850321 9.4123826,96.876312 H 2.4200049 L -6.5530463,49.850321 h 7.05239811 l 5.25178579,32.20095 c 0.040014,0.920313 0.1000344,2.260769 0.1800613,4.021368 -0.020007,-0.920313 0.040014,-2.260769 0.1800612,-4.021368 l 5.2817959,-32.20095 z m 27.069205,42.674512 c 0,2.860973 -1.430487,4.291459 -4.29146,4.291459 h -14.64498 c -2.780945,0 -4.171418,-1.430486 -4.171418,-4.291459 V 54.171791 c 0,-2.88098 1.390473,-4.32147 4.171418,-4.32147 h 14.64498 c 2.860973,0 4.29146,1.44049 4.29146,4.32147 v 10.983735 h -6.992378 v -9.273153 h -9.093092 v 34.901868 h 9.093092 v -9.873358 h 6.992378 z"
       id="text2"
       transform="matrix(1,-0.11405842,-0.13142406,1.01499,0,0)"
       aria-label="PVC" />
  </g>
</svg>
